<svg xmlns="http://www.w3.org/2000/svg" width="520" height="560" viewBox="0 0 520 560" role="img" aria-label="Clinic signboard photo placeholder">
  <rect width="520" height="560" rx="20" fill="#c8102e"/>
  <rect x="20" y="20" width="480" height="520" rx="14" fill="none" stroke="#ffffff" stroke-width="3" opacity="0.5"/>
  <circle cx="260" cy="120" r="60" fill="#0b2f4a"/>
  <path d="M260 76c-27 0-42 18-42 42 0 17 8 25 14 39 4 9 6 25 14 25 10 0 6-22 14-22s4 22 14 22c8 0 10-16 14-25 6-14 14-22 14-39 0-24-15-42-42-42z" fill="#ffffff"/>
  <text x="260" y="240" text-anchor="middle" font-family="Poppins, Arial, sans-serif" font-weight="800" font-size="52" fill="#ffffff">MALATHI</text>
  <text x="260" y="282" text-anchor="middle" font-family="Poppins, Arial, sans-serif" font-weight="700" font-size="30" fill="#ffffff">DENTAL CLINIC</text>
  <text x="260" y="326" text-anchor="middle" font-family="Poppins, Arial, sans-serif" font-size="26" fill="#7fd4ff">Dr. T. Malathi B.D.S</text>
  <text x="260" y="380" text-anchor="middle" font-family="Poppins, Arial, sans-serif" font-weight="800" font-size="42" fill="#ffffff">99004 01661</text>
  <text x="260" y="420" text-anchor="middle" font-family="Poppins, Arial, sans-serif" font-size="19" fill="#ffffff" opacity="0.9">9:30 AM – 7:30 PM</text>
  <rect x="60" y="460" width="400" height="52" rx="26" fill="#ffffff" opacity="0.15"/>
  <text x="260" y="494" text-anchor="middle" font-family="Poppins, Arial, sans-serif" font-size="18" fill="#ffffff">Replace with real photo</text>
</svg>
