<svg xmlns="http://www.w3.org/2000/svg" width="520" height="270" viewBox="0 0 520 270" role="img" aria-label="Clinic building photo placeholder">
  <rect width="520" height="270" rx="20" fill="#d9e8f2"/>
  <rect x="150" y="60" width="120" height="170" rx="6" fill="#ffffff" stroke="#0b2f4a" stroke-width="2" opacity="0.9"/>
  <rect x="165" y="80" width="30" height="30" fill="#0b2f4a" opacity="0.25"/><rect x="205" y="80" width="30" height="30" fill="#0b2f4a" opacity="0.25"/>
  <rect x="165" y="120" width="30" height="30" fill="#0b2f4a" opacity="0.25"/><rect x="205" y="120" width="30" height="30" fill="#0b2f4a" opacity="0.25"/>
  <rect x="270" y="90" width="100" height="140" rx="6" fill="#9fc6dd"/>
  <rect x="285" y="110" width="24" height="24" fill="#ffffff" opacity="0.8"/><rect x="318" y="110" width="24" height="24" fill="#ffffff" opacity="0.8"/>
  <rect x="285" y="144" width="24" height="24" fill="#ffffff" opacity="0.8"/><rect x="318" y="144" width="24" height="24" fill="#ffffff" opacity="0.8"/>
  <rect x="0" y="230" width="520" height="40" fill="#0b2f4a" opacity="0.15"/>
  <circle cx="430" cy="70" r="26" fill="#f5a623" opacity="0.9"/>
  <rect x="60" y="150" width="60" height="80" rx="6" fill="#22a75d" opacity="0.55"/>
  <text x="260" y="258" text-anchor="middle" font-family="Poppins, Arial, sans-serif" font-size="14" font-weight="700" fill="#0b2f4a">Clinic Building — replace with real photo</text>
</svg>
